<svg width="54" height="54" viewBox="0 0 54 54" fill="none" xmlns="http://www.w3.org/2000/svg">
<path opacity="0.1" fill-rule="evenodd" clip-rule="evenodd" d="M54 27C54 41.9117 41.9117 54 27 54C12.0883 54 0 41.9117 0 27C0 12.0883 12.0883 0 27 0C41.9117 0 54 12.0883 54 27ZM27 51C40.2548 51 51 40.2548 51 27C51 13.7452 40.2548 3 27 3C13.7452 3 3 13.7452 3 27C3 40.2548 13.7452 51 27 51Z" fill="#283645"/>
<g clip-path="url(#clip0_39051_80)">
<path fill-rule="evenodd" clip-rule="evenodd" d="M35.5875 22.711C35.712 22.3015 35.5875 22 34.9913 22H33.0225C32.5215 22 32.2905 22.2603 32.1652 22.5475C32.1652 22.5475 31.164 24.9445 29.7458 26.5015C29.2867 26.953 29.0782 27.0963 28.8278 27.0963C28.7025 27.0963 28.5142 26.953 28.5142 26.5428V22.711C28.5142 22.219 28.3763 22 27.9593 22H24.8632C24.5505 22 24.3622 22.228 24.3622 22.4448C24.3622 22.9105 25.0718 23.0185 25.1445 24.3295V27.178C25.1445 27.8028 25.0297 27.916 24.7792 27.916C24.1117 27.916 22.488 25.5078 21.5243 22.7522C21.3375 22.216 21.1485 22 20.6452 22H18.675C18.1125 22 18 22.2603 18 22.5475C18 23.059 18.6675 25.6 21.1087 28.9608C22.7362 31.2558 25.0275 32.5 27.1147 32.5C28.3665 32.5 28.521 32.224 28.521 31.7478V30.013C28.521 29.4603 28.6395 29.35 29.0363 29.35C29.3287 29.35 29.829 29.494 30.9975 30.6003C32.3325 31.912 32.5523 32.5 33.3038 32.5H35.2725C35.835 32.5 36.117 32.224 35.955 31.678C35.7765 31.135 35.139 30.3468 34.2938 29.4115C33.8348 28.879 33.1463 28.3053 32.937 28.018C32.6453 27.6498 32.7285 27.4855 32.937 27.1578C32.937 27.1578 35.337 23.8383 35.5868 22.711H35.5875Z" fill="#D22856"/>
</g>
<defs>
<clipPath id="clip0_39051_80">
<rect width="18" height="18" fill="white" transform="translate(18 18)"/>
</clipPath>
</defs>
</svg>
